<svg width="24" height="24" viewBox="0 0 24 24" fill="none" xmlns="http://www.w3.org/2000/svg">
<g clip-path="url(#clip0_1415_900)">
<path fill-rule="evenodd" clip-rule="evenodd" d="M24 12C24 18.6274 18.6274 24 12 24C5.37258 24 0 18.6274 0 12C0 5.37258 5.37258 0 12 0C18.6274 0 24 5.37258 24 12ZM11 21.0319V16.8491C10.1336 16.9345 9.28167 17.1304 8.46507 17.4321C9.09114 18.7616 9.94119 19.9704 10.9756 21.0069C10.9839 21.0151 10.992 21.0235 11 21.0319ZM18.2301 16.744C18.907 17.1552 19.5415 17.6323 20.1242 18.1684C21.2372 16.7048 21.9637 14.9313 22.1516 13H18.9666C18.8814 14.2756 18.6335 15.5337 18.2301 16.744ZM16.185 15.7534C15.1605 15.3722 14.0889 15.1328 13 15.0417V13H16.7107C16.6371 13.9353 16.4606 14.8587 16.185 15.7534ZM16.7107 11H13V8.95826C14.0889 8.86721 15.1605 8.62783 16.185 8.24659C16.4607 9.14168 16.6372 10.0651 16.7107 11ZM18.9666 11H22.1516C21.9637 9.06875 21.2372 7.29525 20.1242 5.83162C19.5415 6.36765 18.907 6.84482 18.2301 7.25604C18.6337 8.46685 18.8814 9.72501 18.9666 11ZM15.5349 6.56788C14.9089 5.23844 14.0588 4.0296 13.0244 2.99314C13.0161 2.98487 13.008 2.97651 13 2.96806V7.15086C13.866 7.06555 14.718 6.86971 15.5349 6.56788ZM15.5565 2.43715C16.8105 2.90371 17.9479 3.60986 18.9131 4.49996C18.4885 4.89131 18.0315 5.24585 17.5471 5.55978C17.0137 4.43773 16.3444 3.38931 15.5565 2.43715ZM15.5349 17.4321C15.5228 17.4578 15.5106 17.4835 15.4984 17.5091C14.8706 18.8194 14.0248 20.0099 13 21.0312V16.8491C13.866 16.9344 14.718 17.1303 15.5349 17.4321ZM15.5565 21.5628C16.3344 20.6227 16.9971 19.5883 17.5275 18.4813C17.534 18.4676 17.5406 18.4539 17.5471 18.4402C18.0315 18.7541 18.4885 19.1087 18.9131 19.5C17.9479 20.3901 16.8105 21.0963 15.5565 21.5628ZM11 8.95826V11H7.28927C7.36286 10.0647 7.53938 9.14134 7.81499 8.24659C8.83904 8.62765 9.91064 8.86717 11 8.95826ZM5.76993 7.25604C5.36646 8.46632 5.11859 9.72445 5.03337 11H1.8484C2.03632 9.06875 2.76283 7.29525 3.87581 5.83162C4.45832 6.36747 5.09275 6.84468 5.76993 7.25604ZM5.03337 13H1.8484C2.03632 14.9313 2.76283 16.7048 3.87581 18.1684C4.45832 17.6325 5.09275 17.1553 5.76993 16.744C5.36628 15.5332 5.11856 14.275 5.03337 13ZM11 13H7.28928C7.36283 13.9349 7.53927 14.8583 7.81499 15.7534C8.83904 15.3723 9.91064 15.1328 11 15.0417V13ZM11 7.15086V2.9688C9.9752 3.99006 9.12944 5.18058 8.50164 6.49091L8.46507 6.56788C9.28167 6.86958 10.1336 7.06551 11 7.15086ZM8.44354 21.5628C7.18954 21.0963 6.05212 20.3901 5.08692 19.5C5.51137 19.1088 5.96834 18.7542 6.45291 18.4402C6.98633 19.5623 7.65564 20.6107 8.44354 21.5628ZM8.44353 2.43715C7.66559 3.37729 7.00293 4.41165 6.47251 5.51871L6.45291 5.55978C5.96835 5.24576 5.51138 4.8912 5.08693 4.49996C6.05212 3.60986 7.18954 2.90371 8.44353 2.43715Z" fill="#FCE900"/>
</g>
<defs>
<clipPath id="clip0_1415_900">
<rect width="24" height="24" fill="white"/>
</clipPath>
</defs>
</svg>
