<svg width="197" height="197" viewBox="0 0 197 197" fill="none" xmlns="http://www.w3.org/2000/svg">
<g filter="url(#filter0_f_1929_600)">
<rect width="157" height="157" transform="translate(20 20)" fill="black"/>
<path d="M98.9165 98.1284C98.9165 89.9301 105.563 83.25 113.795 83.25C121.993 83.25 128.673 89.8963 128.673 98.1284C128.673 106.327 122.027 113.007 113.795 113.007C105.597 113.007 98.9165 106.327 98.9165 98.1284Z" fill="#FEFEFE"/>
<path d="M69.1934 127.851C69.1934 119.653 75.8397 112.973 84.0717 112.973H98.9501V127.851C98.9501 136.049 92.3037 142.729 84.0717 142.729C75.8397 142.729 69.1934 136.083 69.1934 127.851Z" fill="#FEFEFE"/>
<path d="M98.9165 53.5269V83.2499H113.795C121.993 83.2499 128.673 76.6035 128.673 68.3715C128.673 60.1732 122.027 53.4932 113.795 53.4932H98.9165V53.5269Z" fill="#FEFEFE"/>
<path d="M69.1934 68.4052C69.1934 76.6035 75.8397 83.2836 84.0717 83.2836H98.9501V53.5269H84.0717C75.8397 53.5269 69.1934 60.1732 69.1934 68.4052Z" fill="#FEFEFE"/>
<path d="M69.1934 98.1284C69.1934 106.327 75.8397 113.007 84.0717 113.007H98.9501V83.25H84.0717C75.8397 83.25 69.1934 89.9301 69.1934 98.1284Z" fill="#FEFEFE"/>
</g>
<g filter="url(#filter1_d_1929_600)">
<rect width="157" height="157" transform="translate(20 20)" fill="#2B2A29"/>
<g clip-path="url(#clip0_1929_600)" filter="url(#filter2_f_1929_600)">
<path d="M98 97.5C98 94.45 99.2116 91.5249 101.368 89.3683C103.525 87.2116 106.45 86 109.5 86C112.55 86 115.475 87.2116 117.632 89.3683C119.788 91.5249 121 94.45 121 97.5C121 100.55 119.788 103.475 117.632 105.632C115.475 107.788 112.55 109 109.5 109C106.45 109 103.525 107.788 101.368 105.632C99.2116 103.475 98 100.55 98 97.5Z" fill="#1ABCFE"/>
<path d="M75 120.5C75 117.45 76.2116 114.525 78.3683 112.368C80.5249 110.212 83.45 109 86.5 109H98V120.5C98 123.55 96.7884 126.475 94.6317 128.632C92.4751 130.788 89.55 132 86.5 132C83.45 132 80.5249 130.788 78.3683 128.632C76.2116 126.475 75 123.55 75 120.5Z" fill="#0ACF83"/>
<path d="M98 63V86H109.5C112.55 86 115.475 84.7884 117.632 82.6317C119.788 80.4751 121 77.55 121 74.5C121 71.45 119.788 68.5249 117.632 66.3683C115.475 64.2116 112.55 63 109.5 63H98Z" fill="#FF7262"/>
<path d="M75 74.5C75 77.55 76.2116 80.4751 78.3683 82.6317C80.5249 84.7884 83.45 86 86.5 86H98V63H86.5C83.45 63 80.5249 64.2116 78.3683 66.3683C76.2116 68.5249 75 71.45 75 74.5Z" fill="#F24E1E"/>
<path d="M75 97.5C75 100.55 76.2116 103.475 78.3683 105.632C80.5249 107.788 83.45 109 86.5 109H98V86H86.5C83.45 86 80.5249 87.2116 78.3683 89.3683C76.2116 91.5249 75 94.45 75 97.5Z" fill="#A259FF"/>
</g>
<g clip-path="url(#clip1_1929_600)">
<path d="M98 97.5C98 94.45 99.2116 91.5249 101.368 89.3683C103.525 87.2116 106.45 86 109.5 86C112.55 86 115.475 87.2116 117.632 89.3683C119.788 91.5249 121 94.45 121 97.5C121 100.55 119.788 103.475 117.632 105.632C115.475 107.788 112.55 109 109.5 109C106.45 109 103.525 107.788 101.368 105.632C99.2116 103.475 98 100.55 98 97.5Z" fill="#1ABCFE"/>
<path d="M75 120.5C75 117.45 76.2116 114.525 78.3683 112.368C80.5249 110.212 83.45 109 86.5 109H98V120.5C98 123.55 96.7884 126.475 94.6317 128.632C92.4751 130.788 89.55 132 86.5 132C83.45 132 80.5249 130.788 78.3683 128.632C76.2116 126.475 75 123.55 75 120.5Z" fill="#0ACF83"/>
<path d="M98 63V86H109.5C112.55 86 115.475 84.7884 117.632 82.6317C119.788 80.4751 121 77.55 121 74.5C121 71.45 119.788 68.5249 117.632 66.3683C115.475 64.2116 112.55 63 109.5 63H98Z" fill="#FF7262"/>
<path d="M75 74.5C75 77.55 76.2116 80.4751 78.3683 82.6317C80.5249 84.7884 83.45 86 86.5 86H98V63H86.5C83.45 63 80.5249 64.2116 78.3683 66.3683C76.2116 68.5249 75 71.45 75 74.5Z" fill="#F24E1E"/>
<path d="M75 97.5C75 100.55 76.2116 103.475 78.3683 105.632C80.5249 107.788 83.45 109 86.5 109H98V86H86.5C83.45 86 80.5249 87.2116 78.3683 89.3683C76.2116 91.5249 75 94.45 75 97.5Z" fill="#A259FF"/>
</g>
</g>
<defs>
<filter id="filter0_f_1929_600" x="0.449913" y="0.449913" width="196.1" height="196.1" filterUnits="userSpaceOnUse" color-interpolation-filters="sRGB">
<feFlood flood-opacity="0" result="BackgroundImageFix"/>
<feBlend mode="normal" in="SourceGraphic" in2="BackgroundImageFix" result="shape"/>
<feGaussianBlur stdDeviation="9.77504" result="effect1_foregroundBlur_1929_600"/>
</filter>
<filter id="filter1_d_1929_600" x="16.7417" y="20" width="163.517" height="163.517" filterUnits="userSpaceOnUse" color-interpolation-filters="sRGB">
<feFlood flood-opacity="0" result="BackgroundImageFix"/>
<feColorMatrix in="SourceAlpha" type="matrix" values="0 0 0 0 0 0 0 0 0 0 0 0 0 0 0 0 0 0 127 0" result="hardAlpha"/>
<feOffset dy="3.25835"/>
<feGaussianBlur stdDeviation="1.62917"/>
<feComposite in2="hardAlpha" operator="out"/>
<feColorMatrix type="matrix" values="0 0 0 0 0 0 0 0 0 0 0 0 0 0 0 0 0 0 0.25 0"/>
<feBlend mode="normal" in2="BackgroundImageFix" result="effect1_dropShadow_1929_600"/>
<feBlend mode="normal" in="SourceGraphic" in2="effect1_dropShadow_1929_600" result="shape"/>
</filter>
<filter id="filter2_f_1929_600" x="62" y="50" width="72" height="95" filterUnits="userSpaceOnUse" color-interpolation-filters="sRGB">
<feFlood flood-opacity="0" result="BackgroundImageFix"/>
<feBlend mode="normal" in="SourceGraphic" in2="BackgroundImageFix" result="shape"/>
<feGaussianBlur stdDeviation="6.5" result="effect1_foregroundBlur_1929_600"/>
</filter>
<clipPath id="clip0_1929_600">
<rect width="46" height="69" fill="white" transform="translate(75 63)"/>
</clipPath>
<clipPath id="clip1_1929_600">
<rect width="46" height="69" fill="white" transform="translate(75 63)"/>
</clipPath>
</defs>
</svg>
