<svg width="197" height="197" viewBox="0 0 197 197" fill="none" xmlns="http://www.w3.org/2000/svg">
<g filter="url(#filter0_f_1929_343)">
<rect width="157" height="157" transform="translate(20 20)" fill="#FCE900"/>
<path d="M87.2326 118.7C87.4214 120.495 88.0196 121.912 89.027 122.95C90.0344 123.989 91.5769 124.524 93.6547 124.556C94.7565 124.556 95.6695 124.383 96.3936 124.037C97.1491 123.659 97.7472 123.155 98.188 122.525C98.6602 121.864 98.9907 121.093 99.1796 120.212C99.3685 119.299 99.463 118.307 99.463 117.237V94.523H103.571V116.387C103.571 118.15 103.398 119.755 103.052 121.203C102.706 122.651 102.139 123.911 101.352 124.981C100.565 126.02 99.5417 126.838 98.2824 127.436C97.0232 128.003 95.4806 128.286 93.6547 128.286C90.3807 128.286 87.8464 127.515 86.052 125.973C84.2576 124.43 83.2659 122.006 83.0771 118.7H87.2326ZM123.103 97.8757C122.221 97.8757 121.324 97.9544 120.411 98.1119C119.53 98.2693 118.727 98.5526 118.003 98.9618C117.279 99.3396 116.681 99.8748 116.209 100.567C115.768 101.228 115.547 102.078 115.547 103.117C115.547 104.377 115.878 105.4 116.539 106.187C117.2 106.942 118.003 107.525 118.947 107.934C119.703 108.249 120.506 108.516 121.356 108.737C122.206 108.957 123.071 109.162 123.953 109.351C124.866 109.539 125.747 109.728 126.597 109.917C127.479 110.106 128.329 110.342 129.147 110.626C131.068 111.287 132.594 112.231 133.728 113.459C134.893 114.687 135.475 116.308 135.475 118.323C135.475 120.212 135.144 121.77 134.483 122.998C133.854 124.225 132.988 125.233 131.886 126.02C130.816 126.807 129.557 127.389 128.108 127.767C126.692 128.113 125.181 128.286 123.575 128.286C121.97 128.286 120.427 128.129 118.947 127.814C117.499 127.499 116.177 126.98 114.981 126.256C113.785 125.532 112.761 124.587 111.911 123.423C111.061 122.258 110.463 120.841 110.117 119.173H114.414C114.729 120.243 115.217 121.125 115.878 121.817C116.539 122.51 117.295 123.061 118.145 123.47C118.995 123.879 119.908 124.162 120.883 124.32C121.891 124.477 122.883 124.556 123.858 124.556C124.803 124.556 125.716 124.462 126.597 124.273C127.51 124.052 128.313 123.722 129.006 123.281C129.698 122.84 130.249 122.274 130.658 121.581C131.068 120.888 131.272 120.054 131.272 119.078C131.272 117.599 130.879 116.497 130.092 115.773C129.305 115.049 128.25 114.498 126.928 114.12C126.046 113.837 125.118 113.601 124.142 113.412C123.166 113.223 122.19 113.018 121.214 112.798C120.238 112.577 119.278 112.326 118.334 112.042C117.389 111.727 116.523 111.365 115.736 110.956C114.477 110.358 113.422 109.445 112.572 108.217C111.722 106.958 111.298 105.384 111.298 103.495C111.298 101.732 111.644 100.253 112.336 99.0563C113.029 97.86 113.926 96.8998 115.028 96.1758C116.13 95.4517 117.358 94.9323 118.711 94.6175C120.096 94.3026 121.56 94.1452 123.103 94.1452C124.362 94.1767 125.495 94.2869 126.503 94.4758C127.542 94.6332 128.518 94.9323 129.431 95.373C130.847 96.0026 132.028 96.9471 132.972 98.2063C133.917 99.4655 134.436 101.087 134.531 103.07H130.517C130.391 102.094 130.092 101.276 129.619 100.615C129.179 99.9535 128.628 99.4183 127.967 99.0091C127.306 98.5998 126.55 98.3165 125.7 98.1591C124.882 97.9702 124.016 97.8757 123.103 97.8757Z" fill="black"/>
</g>
<g filter="url(#filter1_d_1929_343)">
<rect width="157" height="157" transform="translate(20 20)" fill="#FCE900"/>
<path d="M131.743 150.914C131.743 152.992 131.507 154.802 131.035 156.345C130.594 157.887 129.839 159.194 128.768 160.264C127.824 161.209 126.628 161.949 125.18 162.484C123.731 163.019 122.032 163.255 120.08 163.192C116.396 163.161 113.547 162.153 111.533 160.17C110.557 159.162 109.801 157.95 109.266 156.534C108.731 155.117 108.495 153.496 108.558 151.67H115.452C115.452 153.244 115.783 154.55 116.444 155.589C117.136 156.597 118.38 157.116 120.174 157.148C121.937 157.179 123.165 156.675 123.857 155.637C124.55 154.598 124.896 153.291 124.896 151.717V129.476H131.743V150.914ZM156.053 139.109C155.864 137.692 155.234 136.685 154.164 136.087C153.094 135.457 151.756 135.111 150.15 135.048C149.584 135.048 148.985 135.095 148.356 135.19C147.758 135.284 147.191 135.473 146.656 135.756C146.121 136.04 145.68 136.417 145.334 136.89C144.987 137.362 144.814 137.944 144.814 138.637C144.783 139.361 144.956 139.975 145.334 140.478C145.743 140.982 146.278 141.391 146.939 141.706C147.411 141.927 147.915 142.131 148.45 142.32C149.017 142.477 149.568 142.635 150.103 142.792C150.638 142.918 151.158 143.028 151.661 143.123C152.165 143.217 152.606 143.312 152.984 143.406C154.337 143.689 155.644 144.02 156.903 144.398C158.162 144.776 159.28 145.295 160.256 145.956C161.232 146.617 162.019 147.499 162.617 148.601C163.215 149.702 163.53 151.135 163.561 152.898C163.561 154.818 163.199 156.455 162.475 157.809C161.751 159.162 160.775 160.249 159.547 161.067C158.383 161.886 157.029 162.484 155.486 162.861C153.944 163.208 152.244 163.349 150.386 163.286C148.592 163.255 146.908 163.019 145.334 162.578C143.76 162.106 142.359 161.429 141.131 160.548C139.935 159.666 138.974 158.564 138.25 157.242C137.526 155.92 137.117 154.362 137.023 152.567H144.011C144.2 153.386 144.515 154.063 144.956 154.598C145.397 155.133 145.916 155.574 146.514 155.92C147.112 156.266 147.773 156.518 148.498 156.675C149.253 156.833 150.009 156.927 150.764 156.959C151.551 156.99 152.307 156.959 153.031 156.864C153.755 156.77 154.384 156.597 154.92 156.345C155.486 156.062 155.927 155.684 156.242 155.212C156.557 154.739 156.714 154.141 156.714 153.417C156.714 152.41 156.399 151.67 155.77 151.198C155.171 150.726 154.51 150.395 153.786 150.206C153.283 150.08 152.826 149.97 152.417 149.876C152.039 149.75 151.661 149.655 151.284 149.592C150.906 149.498 150.512 149.403 150.103 149.309C149.694 149.214 149.222 149.104 148.686 148.978C147.49 148.664 146.247 148.317 144.956 147.939C143.697 147.53 142.563 146.964 141.556 146.239C140.328 145.389 139.399 144.303 138.77 142.981C138.172 141.659 137.904 140.195 137.967 138.59C138.062 136.701 138.502 135.142 139.289 133.915C140.076 132.655 141.084 131.664 142.311 130.94C143.539 130.216 144.893 129.712 146.373 129.429C147.852 129.145 149.332 129.019 150.811 129.051C152.448 129.082 153.959 129.318 155.345 129.759C156.761 130.168 157.989 130.782 159.028 131.601C160.098 132.419 160.964 133.458 161.625 134.717C162.286 135.977 162.695 137.441 162.853 139.109H156.053Z" fill="black"/>
</g>
<defs>
<filter id="filter0_f_1929_343" x="0.449913" y="0.449913" width="196.1" height="196.1" filterUnits="userSpaceOnUse" color-interpolation-filters="sRGB">
<feFlood flood-opacity="0" result="BackgroundImageFix"/>
<feBlend mode="normal" in="SourceGraphic" in2="BackgroundImageFix" result="shape"/>
<feGaussianBlur stdDeviation="9.77504" result="effect1_foregroundBlur_1929_343"/>
</filter>
<filter id="filter1_d_1929_343" x="16.7417" y="20" width="163.517" height="163.517" filterUnits="userSpaceOnUse" color-interpolation-filters="sRGB">
<feFlood flood-opacity="0" result="BackgroundImageFix"/>
<feColorMatrix in="SourceAlpha" type="matrix" values="0 0 0 0 0 0 0 0 0 0 0 0 0 0 0 0 0 0 127 0" result="hardAlpha"/>
<feOffset dy="3.25835"/>
<feGaussianBlur stdDeviation="1.62917"/>
<feComposite in2="hardAlpha" operator="out"/>
<feColorMatrix type="matrix" values="0 0 0 0 0 0 0 0 0 0 0 0 0 0 0 0 0 0 0.25 0"/>
<feBlend mode="normal" in2="BackgroundImageFix" result="effect1_dropShadow_1929_343"/>
<feBlend mode="normal" in="SourceGraphic" in2="effect1_dropShadow_1929_343" result="shape"/>
</filter>
</defs>
</svg>
