<svg width="165" height="164" viewBox="0 0 165 164" fill="none" xmlns="http://www.w3.org/2000/svg">
<g filter="url(#filter0_d_1929_51)">
<rect width="157" height="157" transform="translate(4)" fill="#70ADCA"/>
<g clip-path="url(#clip0_1929_51)">
<path d="M81.7243 34.9453C59.8592 34.9453 61.2244 44.4654 61.2244 44.4654L61.2487 54.3285H82.1142V57.2897H52.9612C52.9612 57.2897 38.9697 55.6965 38.9697 77.8469C38.9697 99.9979 51.1818 99.2123 51.1818 99.2123H58.47V88.9334C58.47 88.9334 58.0771 76.6722 70.4872 76.6722H91.182C91.182 76.6722 102.809 76.8608 102.809 65.39V46.4236C102.809 46.4236 104.575 34.9453 81.7243 34.9453ZM70.2191 41.5781C70.7121 41.5776 71.2004 41.6748 71.6561 41.864C72.1117 42.0533 72.5257 42.3309 72.8743 42.6809C73.223 43.031 73.4994 43.4466 73.6879 43.904C73.8764 44.3615 73.9732 44.8518 73.9727 45.3468C73.9732 45.8419 73.8764 46.3321 73.6879 46.7896C73.4994 47.247 73.223 47.6627 72.8743 48.0127C72.5257 48.3628 72.1117 48.6404 71.6561 48.8296C71.2004 49.0188 70.7121 49.116 70.2191 49.1156C69.726 49.116 69.2377 49.0188 68.7821 48.8296C68.3264 48.6404 67.9125 48.3628 67.5638 48.0127C67.2152 47.6627 66.9387 47.247 66.7502 46.7896C66.5617 46.3321 66.4649 45.8419 66.4654 45.3468C66.4649 44.8518 66.5617 44.3615 66.7502 43.904C66.9387 43.4466 67.2152 43.031 67.5638 42.6809C67.9125 42.3309 68.3264 42.0533 68.7821 41.864C69.2377 41.6748 69.726 41.5776 70.2191 41.5781Z" fill="#FEFEFE"/>
<path d="M82.3452 120.971C104.21 120.971 102.845 111.451 102.845 111.451L102.821 101.588H81.955V98.6271H111.108C111.108 98.6271 125.099 100.22 125.099 78.0692C125.099 55.9185 112.887 56.7041 112.887 56.7041H105.599V66.9827C105.599 66.9827 105.992 79.2439 93.582 79.2439H72.8871C72.8871 79.2439 61.2601 79.0553 61.2601 90.5265V109.493C61.2601 109.493 59.4946 120.971 82.3449 120.971H82.3452ZM93.8504 114.339C93.3573 114.339 92.869 114.242 92.4134 114.053C91.9578 113.864 91.5438 113.586 91.1952 113.236C90.8465 112.886 90.57 112.471 90.3816 112.013C90.1931 111.556 90.0963 111.065 90.0967 110.57C90.0962 110.075 90.193 109.585 90.3815 109.127C90.5699 108.67 90.8464 108.254 91.1951 107.904C91.5437 107.554 91.9577 107.276 92.4133 107.087C92.869 106.898 93.3573 106.801 93.8504 106.801C94.3435 106.801 94.8318 106.898 95.2874 107.087C95.743 107.276 96.157 107.554 96.5057 107.904C96.8543 108.254 97.1308 108.67 97.3193 109.127C97.5078 109.585 97.6045 110.075 97.6041 110.57C97.6045 111.065 97.5078 111.555 97.3193 112.013C97.1308 112.47 96.8543 112.886 96.5057 113.236C96.157 113.586 95.743 113.863 95.2874 114.053C94.8318 114.242 94.3435 114.339 93.8504 114.339Z" fill="#FEFEFE"/>
</g>
</g>
<defs>
<filter id="filter0_d_1929_51" x="0.741652" y="0" width="163.517" height="163.517" filterUnits="userSpaceOnUse" color-interpolation-filters="sRGB">
<feFlood flood-opacity="0" result="BackgroundImageFix"/>
<feColorMatrix in="SourceAlpha" type="matrix" values="0 0 0 0 0 0 0 0 0 0 0 0 0 0 0 0 0 0 127 0" result="hardAlpha"/>
<feOffset dy="3.25835"/>
<feGaussianBlur stdDeviation="1.62917"/>
<feComposite in2="hardAlpha" operator="out"/>
<feColorMatrix type="matrix" values="0 0 0 0 0 0 0 0 0 0 0 0 0 0 0 0 0 0 0.25 0"/>
<feBlend mode="normal" in2="BackgroundImageFix" result="effect1_dropShadow_1929_51"/>
<feBlend mode="normal" in="SourceGraphic" in2="effect1_dropShadow_1929_51" result="shape"/>
</filter>
<clipPath id="clip0_1929_51">
<rect width="86.3462" height="86.3462" fill="white" transform="translate(38.9209 34.9209)"/>
</clipPath>
</defs>
</svg>
