<svg width="209" height="209" viewBox="0 0 209 209" fill="none" xmlns="http://www.w3.org/2000/svg">
<g filter="url(#filter0_f_1929_799)">
<rect width="157" height="157" transform="translate(26 26)" fill="#9ABE3D"/>
<g clip-path="url(#clip0_1929_799)">
<path d="M88.7505 116.48C92.6361 116.48 95.7862 119.63 95.7862 123.516V153.697C95.7862 157.583 92.6361 160.732 88.7505 160.732C84.8653 160.732 81.7153 157.583 81.7153 153.697V123.516C81.7153 119.631 84.8653 116.481 88.7505 116.481V116.48Z" fill="#FEFEFE"/>
<path d="M72.689 80.1943C72.6658 80.4611 72.6455 80.7309 72.6455 81.0036V126.731C72.6455 131.648 76.5381 135.61 81.3703 135.61H127.872C132.704 135.61 136.597 131.648 136.597 126.731V81.0036C136.597 80.7309 136.587 80.4601 136.564 80.1943H72.689Z" fill="#FEFEFE"/>
<path d="M75.3413 48.7554L82.7628 61.6104M133.902 48.7554L126.48 61.6104" stroke="#FEFEFE" stroke-width="1.48213" stroke-linecap="round" stroke-linejoin="round"/>
<path fill-rule="evenodd" clip-rule="evenodd" d="M127.528 123.516C127.528 119.631 124.378 116.481 120.492 116.481V116.481C116.607 116.481 113.457 119.631 113.457 123.516V153.697C113.457 157.583 116.607 160.732 120.492 160.732C124.378 160.732 127.528 157.583 127.528 153.697V123.516ZM68.3765 91.2997C68.3765 87.414 65.2265 84.264 61.3413 84.264C57.4552 84.264 54.3052 87.4145 54.3057 91.3001V121.481C54.3057 125.366 57.4557 128.516 61.3413 128.516C65.2265 128.516 68.3765 125.366 68.3765 121.481V91.2997ZM154.937 91.2997C154.937 87.414 151.787 84.264 147.902 84.264C144.016 84.264 140.866 87.4145 140.866 91.3001V121.481C140.866 125.366 144.016 128.516 147.902 128.516C151.787 128.516 154.937 125.366 154.937 121.481V91.2997ZM101.086 50.1113C85.3493 51.629 73.0901 63.1452 72.8945 77.1908H136.347C136.152 63.1461 123.894 51.6295 108.156 50.1113H101.086ZM91.5402 68.1686C93.5509 68.1632 95.1758 66.5669 95.1699 64.6036V64.5838C95.164 62.6195 93.5297 61.0332 91.5199 61.0386C89.5097 61.044 87.8848 62.6398 87.8902 64.6036V64.6234C87.8961 66.5867 89.5304 68.1736 91.5402 68.1686ZM118.711 68.1686C120.721 68.1632 122.346 66.5669 122.34 64.6036V64.5838C122.334 62.6195 120.7 61.0332 118.69 61.0386C116.68 61.044 115.055 62.6398 115.061 64.6036V64.6234C115.066 66.5867 116.701 68.1736 118.711 68.1686Z" fill="#FEFEFE"/>
</g>
</g>
<g filter="url(#filter1_d_1929_799)">
<rect width="157" height="157" transform="translate(26 26)" fill="#9ABE3D"/>
<g clip-path="url(#clip1_1929_799)">
<path d="M88.7505 116.48C92.6361 116.48 95.7862 119.63 95.7862 123.516V153.697C95.7862 157.583 92.6361 160.732 88.7505 160.732C84.8653 160.732 81.7153 157.583 81.7153 153.697V123.516C81.7153 119.631 84.8653 116.481 88.7505 116.481V116.48Z" fill="#FEFEFE"/>
<path d="M72.689 80.1943C72.6658 80.4611 72.6455 80.7309 72.6455 81.0036V126.731C72.6455 131.648 76.5381 135.61 81.3703 135.61H127.872C132.704 135.61 136.597 131.648 136.597 126.731V81.0036C136.597 80.7309 136.587 80.4601 136.564 80.1943H72.689Z" fill="#FEFEFE"/>
<path d="M75.3413 48.7554L82.7628 61.6104M133.902 48.7554L126.48 61.6104" stroke="#FEFEFE" stroke-width="1.48213" stroke-linecap="round" stroke-linejoin="round"/>
<path fill-rule="evenodd" clip-rule="evenodd" d="M127.528 123.516C127.528 119.631 124.378 116.481 120.492 116.481V116.481C116.607 116.481 113.457 119.631 113.457 123.516V153.697C113.457 157.583 116.607 160.732 120.492 160.732C124.378 160.732 127.528 157.583 127.528 153.697V123.516ZM68.3765 91.2997C68.3765 87.414 65.2265 84.264 61.3413 84.264C57.4552 84.264 54.3052 87.4145 54.3057 91.3001V121.481C54.3057 125.366 57.4557 128.516 61.3413 128.516C65.2265 128.516 68.3765 125.366 68.3765 121.481V91.2997ZM154.937 91.2997C154.937 87.414 151.787 84.264 147.902 84.264C144.016 84.264 140.866 87.4145 140.866 91.3001V121.481C140.866 125.366 144.016 128.516 147.902 128.516C151.787 128.516 154.937 125.366 154.937 121.481V91.2997ZM101.086 50.1113C85.3493 51.629 73.0901 63.1452 72.8945 77.1908H136.347C136.152 63.1461 123.894 51.6295 108.156 50.1113H101.086ZM91.5402 68.1686C93.5509 68.1632 95.1758 66.5669 95.1699 64.6036V64.5838C95.164 62.6195 93.5297 61.0332 91.5199 61.0386C89.5097 61.044 87.8848 62.6398 87.8902 64.6036V64.6234C87.8961 66.5867 89.5304 68.1736 91.5402 68.1686ZM118.711 68.1686C120.721 68.1632 122.346 66.5669 122.34 64.6036V64.5838C122.334 62.6195 120.7 61.0332 118.69 61.0386C116.68 61.044 115.055 62.6398 115.061 64.6036V64.6234C115.066 66.5867 116.701 68.1736 118.711 68.1686Z" fill="#FEFEFE"/>
</g>
</g>
<defs>
<filter id="filter0_f_1929_799" x="0.841284" y="0.841284" width="207.317" height="207.317" filterUnits="userSpaceOnUse" color-interpolation-filters="sRGB">
<feFlood flood-opacity="0" result="BackgroundImageFix"/>
<feBlend mode="normal" in="SourceGraphic" in2="BackgroundImageFix" result="shape"/>
<feGaussianBlur stdDeviation="12.5794" result="effect1_foregroundBlur_1929_799"/>
</filter>
<filter id="filter1_d_1929_799" x="21.8069" y="26" width="165.386" height="165.386" filterUnits="userSpaceOnUse" color-interpolation-filters="sRGB">
<feFlood flood-opacity="0" result="BackgroundImageFix"/>
<feColorMatrix in="SourceAlpha" type="matrix" values="0 0 0 0 0 0 0 0 0 0 0 0 0 0 0 0 0 0 127 0" result="hardAlpha"/>
<feOffset dy="4.19312"/>
<feGaussianBlur stdDeviation="2.09656"/>
<feComposite in2="hardAlpha" operator="out"/>
<feColorMatrix type="matrix" values="0 0 0 0 0 0 0 0 0 0 0 0 0 0 0 0 0 0 0.25 0"/>
<feBlend mode="normal" in2="BackgroundImageFix" result="effect1_dropShadow_1929_799"/>
<feBlend mode="normal" in="SourceGraphic" in2="effect1_dropShadow_1929_799" result="shape"/>
</filter>
<clipPath id="clip0_1929_799">
<rect width="100.635" height="112.718" fill="white" transform="translate(54.3037 48.0142)"/>
</clipPath>
<clipPath id="clip1_1929_799">
<rect width="100.635" height="112.718" fill="white" transform="translate(54.3037 48.0142)"/>
</clipPath>
</defs>
</svg>
