<svg width="157" height="157" viewBox="0 0 157 157" fill="none" xmlns="http://www.w3.org/2000/svg">
<rect width="157" height="157" fill="#FE3A83"/>
<g clip-path="url(#clip0_1929_701)">
<path d="M121.282 97.4695C120.005 97.6344 119.206 97.6344 118.887 97.7993C118.248 98.129 116.811 98.4588 115.055 98.4588C112.82 98.4588 110.744 97.6344 108.988 96.3152H107.711C107.232 96.3152 106.913 96.3152 106.434 96.1503C104.677 96.8099 103.081 96.8099 102.123 96.8099H101.803C99.5683 96.9748 97.333 96.4801 95.4171 95.4907C94.4592 95.8205 93.6609 95.9854 92.7029 95.9854L86.7955 96.1503C84.0813 96.1503 81.6865 95.1609 79.7705 93.3471C78.9723 93.3471 78.174 93.1822 77.5353 93.0173C76.5774 94.1715 75.3001 95.1609 73.7035 95.9854C70.67 97.4695 67.3171 97.6344 64.124 96.3152C63.8046 96.1503 63.3257 95.9854 63.0064 95.8205L59.3342 96.3152H58.2166C57.7376 96.4801 57.4183 96.8099 57.099 96.9748C54.7041 98.129 52.4689 98.1291 51.5109 98.1291H50.7126C47.9984 98.1291 45.2842 97.3046 43.2086 95.8205C42.57 95.9854 41.7717 96.1503 41.1331 96.1503C39.6961 97.1397 37.9399 97.7993 36.024 97.9642H35.3853C30.1166 97.9642 25.8058 93.8418 25.3268 88.4002V88.2353C25.3268 87.4108 25.1672 85.5969 25.3268 83.6182C25.3268 82.6288 25.4865 81.1447 25.4865 80.815C25.4865 79.4958 25.8058 78.1766 26.2848 76.8574C25.9655 75.5383 26.1251 74.2191 26.2848 72.8999V72.4052C26.4444 71.251 26.7638 68.9424 27.8814 66.6339C29.9569 62.6764 33.7887 60.2029 38.0995 60.2029C39.5365 59.3785 40.9734 59.0487 42.57 59.0487H43.049C46.2422 59.2136 49.116 60.8625 50.8723 63.5009C52.3092 62.1817 54.0654 61.3572 55.9814 61.0274C59.8132 60.5327 63.0064 60.3678 65.7206 60.8625C67.1575 59.5433 69.0734 58.554 70.9893 58.3891L75.1404 57.7295H76.4177C78.8126 57.7295 81.2075 58.7189 83.1234 60.3678H83.4427L89.5098 60.2029C92.0643 60.2029 94.2995 60.038 94.7785 60.038H95.5768C97.812 60.038 100.207 60.8625 101.963 62.3466C103.719 61.0274 105.795 60.3678 108.03 60.3678H110.106C111.702 59.3785 113.459 58.7189 115.375 58.7189L120.484 58.554H120.643C126.072 58.554 130.542 63.1711 130.702 68.7775C130.702 71.4159 129.903 73.7244 128.307 75.7032V80.4852C129.744 82.1341 130.542 84.2778 130.702 86.5863C131.021 92.1928 126.87 96.9748 121.282 97.4695Z" fill="#FEFEFE"/>
<path d="M120.963 91.5333C118.887 91.6982 117.61 91.8631 117.291 92.028L117.131 92.1929C116.652 92.3578 116.013 92.6876 115.215 92.6876C114.257 92.6876 113.14 92.3578 112.341 91.5333C112.022 91.2035 111.703 90.8737 111.543 90.5439H107.871C107.232 90.5439 106.594 90.379 106.115 90.0493C105.955 90.2142 105.636 90.2141 105.476 90.379C104.199 91.0386 103.081 91.0386 102.283 91.0386H101.485C99.0896 91.0386 97.1737 90.2141 95.8964 88.7301C95.0981 89.5546 93.9805 90.0493 92.8629 90.0493L86.9555 90.2142C84.88 90.2142 82.9641 88.5652 82.6447 86.5864C81.8464 87.0811 81.0481 87.4109 80.0902 87.4109C79.1322 87.4109 78.1743 87.0811 77.376 86.5864C77.2163 86.4215 77.0567 86.2566 76.897 86.2566C76.418 86.5864 75.7794 86.5864 75.1408 86.5864H74.6618C74.0231 88.5652 72.9055 89.8844 71.1493 90.7088C70.351 91.0386 69.393 91.3684 68.5947 91.3684C67.7964 91.3684 66.8385 91.2035 66.0402 90.8737C65.2419 90.5439 64.6033 90.0493 64.1243 89.5546C63.805 89.7195 63.4856 89.7195 63.1663 89.8844L58.5362 90.5439H57.8976C57.4186 90.5439 57.0993 90.5439 56.6203 90.379C55.9817 91.0386 55.1834 91.3684 54.5447 91.6982C53.2675 92.3578 52.1499 92.3578 51.3516 92.3578H50.5533C47.6794 92.3578 45.4442 91.0386 44.1669 89.2248C42.8896 90.0493 41.293 90.5439 39.8561 90.5439H38.8982C38.8982 90.7088 38.7385 90.7088 38.7385 90.8737C37.9402 91.6982 36.8226 92.3578 35.705 92.3578H35.3857C33.1504 92.3578 31.2345 90.5439 31.0749 88.0705V87.9056C31.0749 87.0811 30.9152 85.5971 31.0749 83.9481C31.0749 82.7938 31.2345 80.98 31.2345 80.98C31.2345 79.8257 31.7135 78.8363 32.3521 78.0118C31.7135 76.6927 31.5538 75.2086 31.8732 73.5596V73.2298C32.0328 72.2405 32.1925 70.7564 32.8311 69.2723C33.9487 67.1287 36.0243 65.9744 38.4192 65.9744H39.5368C40.3351 65.3148 41.293 64.8201 42.4107 64.8201C44.8055 64.8201 46.7215 66.9638 46.7215 69.4372V71.2511C47.5197 70.9213 48.4777 70.7564 49.4357 70.7564C49.9146 70.7564 50.2339 70.7564 50.7129 70.9213C51.3516 70.0968 52.3095 69.6021 53.2675 69.4372C53.4271 69.1074 53.5868 68.9425 53.7464 68.6128C54.3851 67.6234 55.5027 66.9638 56.6203 66.7989C57.5783 66.634 59.4942 66.4691 61.7294 66.4691C64.2839 66.4691 66.3595 66.7989 67.9561 67.6234C68.4351 65.8095 69.7124 64.4904 71.6283 64.1606L75.7794 63.501H76.418C77.6953 63.501 78.8129 63.9957 79.6112 64.985C79.9305 65.3148 80.4095 65.9744 80.5692 66.4691L80.7288 66.9638C81.5271 66.4691 82.3254 66.1393 83.2834 66.1393L89.5101 65.9744C92.5436 65.9744 95.2578 65.8095 95.2578 65.6446H95.5771C96.6947 65.6446 97.972 66.1393 98.7703 66.9638C99.4089 67.6234 99.8879 68.4479 100.048 69.4372H100.367C100.846 69.4372 101.165 69.4372 101.644 69.6021C102.283 68.7777 103.241 68.283 104.199 68.1181C104.997 66.9638 106.434 65.9744 108.031 65.9744H112.182C112.98 64.985 114.098 64.3255 115.534 64.3255H120.644C123.038 64.3255 124.954 66.3042 125.114 68.7777C125.114 70.5915 124.156 72.2405 122.719 72.9001V82.9587C123.996 83.6183 124.954 85.1024 125.114 86.7513C125.274 89.2248 123.358 91.3684 120.963 91.5333Z" fill="#FE3A83"/>
<path d="M76.7372 71.7456L75.6196 77.6819L78.8128 77.1872L76.7372 71.7456Z" fill="#FE3A83"/>
<path d="M38.5785 77.5166C37.4609 77.3517 36.8223 76.5272 37.1416 74.2187V73.8889C37.4609 71.9101 37.6206 71.4155 38.5785 71.4155C38.8978 71.4155 39.2172 71.5804 39.5365 71.9101C39.8558 72.2399 40.4944 72.7346 40.8138 73.724C41.1331 74.3836 41.1331 74.8783 41.2927 75.373V76.0325C41.2927 76.3623 41.6121 76.6921 42.091 76.857C42.57 77.0219 43.049 76.5272 43.2086 76.0325C43.2086 76.0325 43.528 69.7665 43.528 69.6016C43.528 69.1069 43.049 68.6122 42.57 68.6122C42.091 68.6122 41.6121 69.1069 41.6121 69.6016V71.4155C40.8138 70.591 39.8558 69.7665 38.7382 69.7665C35.7047 69.2718 35.3854 72.075 35.2257 73.724V74.0538C34.9064 77.1868 35.8643 79.1656 38.2592 79.6603C40.8138 80.155 42.57 80.6496 42.57 82.2986C42.57 82.9582 42.2507 83.6178 41.6121 84.1125C40.9734 84.772 40.0155 84.9369 39.0575 84.772C38.7382 84.772 38.5785 84.6071 38.2592 84.6071C37.9399 84.4423 36.9819 83.9476 36.6626 83.288C36.503 82.6284 36.3433 81.8039 36.3433 81.3092V80.9794C36.3433 80.4847 35.8643 79.9901 35.3854 79.9901C34.9064 79.9901 34.4274 80.4847 34.4274 80.9794C34.4274 80.9794 34.4274 82.9582 34.2677 84.1125C34.1081 86.0912 34.2677 87.5753 34.2677 87.7402C34.2677 88.2349 34.7467 88.7296 35.2257 88.7296C35.7047 88.7296 36.1836 88.2349 36.1836 87.7402V85.9263C36.8223 86.421 37.7802 86.9157 38.8979 87.0806C40.3348 87.4104 41.7717 86.9157 42.8893 85.9263C43.8473 85.1018 44.4859 83.7827 44.4859 82.6284C44.4859 78.506 40.4944 77.8464 38.5785 77.5166ZM65.4012 74.7134C65.2416 74.8783 65.0819 75.0432 64.7626 75.2081C64.603 75.373 64.124 75.5379 63.9643 75.5379L63.4853 75.7028C62.8467 76.0325 61.8887 76.1974 60.9308 76.3623V71.7452C63.4853 71.7452 65.7206 71.9101 66.1995 72.7346V73.0644C66.1995 73.3942 65.8802 74.0538 65.4012 74.7134ZM70.9893 83.6178C70.5103 83.4529 69.8717 83.7827 69.712 84.2774C69.3927 85.4316 69.0734 85.4316 68.9137 85.5965C68.7541 85.7614 68.4348 85.5965 67.9558 85.4316C67.9558 85.4316 67.7961 85.1018 67.6365 84.9369C67.4768 84.6071 67.3172 83.288 67.3172 82.4635C67.3172 79.4954 66.6785 77.8464 65.8802 77.0219C66.3592 76.6921 66.8382 76.1974 66.8382 76.1974C67.9558 74.5485 68.2751 73.2293 67.6365 72.075C66.0399 69.2718 59.1745 70.0963 56.9393 70.4261C56.4603 70.4261 55.9814 71.0857 56.141 71.5804C56.141 72.075 56.7797 72.5697 57.2586 72.4048C57.7376 72.4048 58.2166 72.2399 58.6956 72.2399V76.857H58.2166C57.7376 76.857 57.2586 77.3517 57.2586 77.8464C57.2586 78.3411 57.7376 78.8358 58.2166 78.8358H58.6956V84.6071L57.4183 84.772C56.9393 84.772 56.4603 85.4316 56.62 85.9263C56.62 86.421 57.2586 86.9157 57.7376 86.7508L62.3677 86.0912C62.8467 86.0912 63.3257 85.4316 63.166 84.9369C63.166 84.4423 62.5274 83.9476 62.0484 84.1125L60.6115 84.2774V78.506C61.5694 78.3411 62.3677 78.1762 63.166 77.8464H63.4853C63.8047 77.8464 64.124 78.0113 64.2836 78.3411C64.603 78.8358 64.9223 79.8252 65.0819 82.2986C65.0819 82.7933 65.2416 84.772 65.5609 85.5965C65.7206 85.9263 66.1995 86.7508 66.9978 87.0806C67.6365 87.2455 68.4348 87.5753 69.3927 87.0806C70.191 86.5859 70.8297 86.0912 71.149 84.6071C71.7876 84.2774 71.4683 83.7827 70.9893 83.6178ZM105.795 80.4847C105.316 80.4847 104.837 80.9794 104.837 81.4741V82.7933C104.837 83.288 104.677 83.9476 104.518 84.1125C104.358 84.4423 104.198 84.6071 103.879 84.9369C103.719 85.1018 103.4 85.2667 103.081 85.4316C102.761 85.5965 102.602 85.5965 101.963 85.5965H101.325C98.77 85.7614 98.4507 83.6178 98.4507 83.1231V78.8358C98.6103 77.1868 98.9296 76.0325 99.5683 75.5379C100.047 75.2081 100.686 75.373 101.804 75.7028C103.081 76.1974 103.879 77.6815 104.039 77.6815C104.198 78.0113 104.677 78.1762 105.156 78.1762C105.635 78.0113 105.795 77.6815 105.795 77.1868V72.7346C105.795 72.2399 105.316 71.7452 104.837 71.7452C104.358 71.7452 103.879 72.2399 103.879 72.7346V74.5485C103.56 74.2187 103.081 74.0538 102.602 73.724C102.123 73.3942 100.207 72.5697 98.77 73.5591C97.6524 74.3836 96.8541 75.8677 96.6944 78.3411V82.9582C96.8541 84.4423 97.9717 87.4104 101.484 87.4104H101.963C102.602 87.4104 103.24 87.4104 103.879 87.0806C104.358 86.9157 104.837 86.5859 105.316 86.0912C105.635 85.7614 105.795 85.4316 106.114 84.9369C106.434 84.2774 106.593 83.1231 106.753 82.7933V81.1443C106.753 80.8145 106.274 80.4847 105.795 80.4847ZM121.601 87.0806C121.601 86.5859 121.122 86.0912 120.643 86.0912C120.324 86.0912 119.845 86.0912 119.366 86.2561C119.366 84.6071 119.366 81.1443 119.206 69.9314H120.643C121.122 69.9314 121.601 69.4367 121.601 68.942C121.601 68.4473 121.122 67.9526 120.643 67.9526L115.534 68.1175C115.055 68.1175 114.576 68.6122 114.576 69.1069C114.576 69.6016 115.055 70.0963 115.534 70.0963H117.131V77.0219L111.383 78.0113V71.7452H112.98C113.459 71.7452 113.938 71.2506 113.938 70.7559C113.938 70.2612 113.459 69.7665 112.98 69.7665H107.871C107.392 69.7665 106.913 70.2612 106.913 70.7559C106.913 71.2506 107.392 71.7452 107.871 71.7452H109.467V85.1018H107.871C107.392 85.1018 106.913 85.5965 106.913 86.0912C106.913 86.5859 107.392 87.0806 107.871 87.0806L113.139 87.2455C113.618 87.2455 114.097 86.7508 114.097 86.2561C114.097 85.7614 113.618 85.2667 113.139 85.2667H111.543V80.155L117.29 79.1656V86.7508C116.013 87.0806 115.055 87.0806 114.576 87.7402C114.257 88.07 114.257 88.7296 114.736 89.0593C115.055 89.3891 115.534 89.2242 116.173 89.0593C116.652 88.7296 118.568 88.5647 120.803 88.3998C121.282 88.07 121.601 87.5753 121.601 87.0806Z" fill="#FEFEFE"/>
<path d="M75.6193 77.6818L76.7369 71.7455L78.8125 77.1871L75.6193 77.6818ZM84.0812 79.3307C83.7619 79.4956 83.2829 79.6605 82.325 80.1552L81.0477 77.0222L77.3755 67.9529C77.3755 67.788 77.2159 67.4582 77.0562 67.4582C76.8965 67.2933 76.5772 67.1284 76.2579 67.1284L72.1068 67.6231C71.6278 67.6231 71.1488 68.1178 71.3085 68.7774C71.3085 69.2721 71.7875 69.7668 72.4261 69.6019C72.4261 69.6019 74.0227 69.437 75.3 69.2721C74.9806 71.0859 73.5437 78.5063 73.0647 80.8148L70.1909 80.6499C69.7119 80.6499 69.2329 80.9797 69.2329 81.6393C69.2329 82.134 69.5522 82.6287 70.1909 82.6287L74.9806 82.7936C75.4596 82.7936 75.9386 82.4638 75.9386 81.8042C75.9386 81.3095 75.6193 80.8148 74.9806 80.8148L75.1403 79.3307L79.6107 78.5063L80.5687 80.9797C79.7704 81.4744 79.4511 81.6393 78.9721 82.134C78.6528 82.6287 78.8125 83.1233 79.1318 83.4531C79.6107 83.7829 80.2494 83.618 80.5687 83.2882C81.0477 82.6287 82.8039 81.8042 84.5602 81.1446C85.0392 80.9797 85.3585 80.3201 85.1988 79.8254C85.0392 79.4956 84.5602 79.1658 84.0812 79.3307Z" fill="#FEFEFE"/>
<path d="M95.5768 69.272C95.5768 69.272 92.7029 69.4369 89.5098 69.6018L83.2831 69.7667C82.9637 69.7667 82.8041 69.9316 82.4848 70.0965C82.3251 70.2613 82.1654 70.5911 82.3251 70.9209L83.1234 75.8678C83.1234 76.3625 83.762 76.8572 84.241 76.6923C84.72 76.6923 85.0393 76.1976 85.0393 75.7029C85.0393 75.7029 84.72 73.0646 84.4007 71.7454H88.5518V84.7722H86.4762C85.9973 84.7722 85.5183 85.2669 85.5183 85.7616C85.5183 86.2563 85.9973 86.751 86.4762 86.751L92.3836 86.5861C92.8626 86.5861 93.3416 86.0914 93.3416 85.5967C93.3416 85.102 92.8626 84.6073 92.3836 84.6073H90.4677V71.5805C92.0643 71.5805 93.5012 71.4156 94.4592 71.4156V73.3944C94.4592 74.3838 94.6189 74.7135 94.6189 74.8784C94.9382 75.3731 95.4171 75.538 95.8961 75.2082C96.2154 75.0433 96.3751 74.5486 96.3751 74.2189C96.3751 74.2189 96.3751 71.9103 96.5348 70.5911C96.5348 70.2613 96.5348 70.0965 96.2154 69.7667C96.2154 69.4369 95.8961 69.272 95.5768 69.272ZM54.8637 81.4743C54.3848 81.4743 53.9058 81.969 53.9058 82.4637V83.9477C53.9058 84.2775 53.7461 84.9371 53.5865 85.2669C53.4268 85.5967 53.2671 85.7616 52.9478 86.0914C52.7882 86.2563 52.4689 86.4212 52.1495 86.5861C51.8302 86.751 51.6706 86.751 51.0319 86.751H50.3933C47.8387 86.751 47.5194 84.7722 47.5194 84.2775V79.9902C47.6791 78.3413 47.9984 77.187 48.637 76.6923C49.116 76.3625 49.7547 76.5274 50.8723 76.8572C52.1495 77.3519 53.1075 78.8359 53.1075 78.8359C53.2672 79.1657 53.7461 79.3306 54.2251 79.3306C54.7041 79.1657 54.8637 78.8359 54.8637 78.3413V73.8891C54.8637 73.3944 54.3848 72.8997 53.9058 72.8997C53.4268 72.8997 52.9478 73.3944 52.9478 73.8891V75.7029C52.6285 75.3731 52.1495 75.0433 51.6706 74.8784C51.0319 74.5486 49.2757 73.8891 47.6791 74.7135C46.5615 75.538 45.7632 77.0221 45.6035 79.4955V84.1126C45.7632 85.5967 46.8808 88.5648 50.5529 88.5648H51.0319C51.6706 88.5648 52.3092 88.5648 52.9478 88.235C53.4268 88.0701 53.9058 87.7403 54.3848 87.2456C54.7041 86.9159 54.8637 86.5861 55.1831 86.0914C55.5024 85.4318 55.662 84.2775 55.8217 83.9477V82.2988C55.8217 81.969 55.3427 81.4743 54.8637 81.4743Z" fill="#FEFEFE"/>
</g>
<defs>
<clipPath id="clip0_1929_701">
<rect width="105.896" height="40.7294" fill="white" transform="translate(25.146 57.7295)"/>
</clipPath>
</defs>
</svg>
