<svg width="222" height="44" viewBox="0 0 222 44" fill="none" xmlns="http://www.w3.org/2000/svg">
<path d="M220.453 1.5422C220.453 1.84994 220.259 1.98198 219.803 1.98198H219.459V1.08994H219.803C220.246 1.08994 220.453 1.23342 220.453 1.5422ZM220.871 1.5422C220.871 0.993256 220.502 0.702148 219.803 0.702148H219.054V2.96447H219.46V2.37186H219.804C219.84 2.37186 219.877 2.37186 219.913 2.36874L220.349 2.94575L220.363 2.96447H220.901L220.365 2.2866C220.7 2.16704 220.871 1.91648 220.871 1.54324V1.5422Z" fill="#FCE900"/>
<path d="M219.916 3.47835C219.043 3.47835 218.332 2.76098 218.332 1.87934C218.332 0.997703 219.042 0.280332 219.916 0.280332C220.79 0.280332 221.499 0.996664 221.499 1.87934C221.499 2.76202 220.789 3.47835 219.916 3.47835ZM219.916 0.00585938C218.893 0.00585938 218.061 0.845912 218.061 1.87934C218.061 2.91277 218.892 3.75282 219.916 3.75282C220.939 3.75282 221.771 2.91173 221.771 1.87934C221.771 0.846951 220.938 0.00585938 219.916 0.00585938Z" fill="#FCE900"/>
<path d="M206.057 12.4781C205.812 14.1748 204.898 15.7125 203.633 16.8291C202.368 17.9468 200.749 18.6309 199.084 18.6433H199.07H199.058C195.725 18.6309 193.41 15.8695 193.911 12.4781C194.156 10.7824 195.056 9.24473 196.323 8.12813C197.588 7.01048 199.206 6.32742 200.871 6.31391H200.884H200.898C201.028 6.31391 201.157 6.31391 201.289 6.32742L200.822 9.56079C200.69 9.53376 200.56 9.52128 200.417 9.52128C198.816 9.53376 197.323 10.8489 197.076 12.4781C196.842 14.0948 197.952 15.4235 199.554 15.4235C200.663 15.4235 201.711 14.7778 202.333 13.8484H200.194L200.584 11.1962H206.107L206.121 11.6235C206.13 11.899 206.101 12.1891 206.058 12.4771L206.057 12.4781ZM212.91 18.1932L215.599 0H192.679L188.655 27.2871H194.402L193.58 32.9169H199.358L192.998 36.8989L191.965 43.979H214.885L218.657 18.1932H212.91Z" fill="#FCE900"/>
<path d="M20.8746 25.3695L28.5413 25.4101L27.7332 30.8195L27.5468 30.9619C24.2483 33.5257 20.8488 34.5716 15.8166 34.5716C8.53897 34.5716 4.31901 30.0969 5.31352 23.4368C6.32347 16.6737 11.7531 12.304 19.1419 12.304C24.3533 12.304 27.4706 13.6421 29.822 16.9097L34.1449 14.7368C31.2932 10.1134 26.7737 7.95508 19.9655 7.95508C9.68585 7.95508 1.55683 14.322 0.194792 23.4368C-1.18887 32.6981 4.89656 38.9195 15.3389 38.9195C20.1302 38.9195 23.7273 37.9058 27.3687 35.5292L27.9802 35.1299L28.4085 38.487H31.53L34.1645 20.8574H19.5815L20.8735 25.3706L20.8746 25.3695Z" fill="#FEFEFE"/>
<path d="M163.766 21.2348L153.977 20.1421C151.427 19.8593 148.741 19.3259 149.155 16.5521C149.598 13.5828 152.848 12.1408 159.086 12.1408C164.262 12.1408 167.825 13.0723 171.291 15.3502L174.241 11.8434C170.435 9.12055 166.062 7.95508 159.712 7.95508C152.783 7.95508 145.04 10.2278 144.086 16.6072C143.384 21.3023 146.157 23.8443 152.806 24.6054L163.172 25.6991C165.415 25.9174 168.344 26.5787 167.866 29.7808C167.389 32.9674 163.441 34.7941 157.035 34.7941C151.514 34.7941 147.426 33.6214 143.437 30.8839L140.497 34.5955C144.629 37.6272 149.155 38.9247 155.55 38.9247C165.652 38.9247 171.949 35.5531 172.828 29.6727C173.546 24.8694 170.495 22.0322 163.767 21.2368L163.766 21.2348Z" fill="#FEFEFE"/>
<path d="M48.5188 25.3103H66.0771L66.7278 20.9541H47.2793L48.5188 25.3103Z" fill="#FEFEFE"/>
<path d="M38.6768 38.4864H67.2333L67.9004 34.0137H44.2948L46.2488 20.9534H46.2457L47.4502 12.8939H70.187L70.8469 8.47949H43.1592L38.6768 38.4864Z" fill="#FEFEFE"/>
<path d="M72.5107 38.4864H101.067L101.735 34.0137H78.1298L80.0838 20.9534H80.0807L81.2853 12.8939H104.022L104.682 8.47949H76.9932L72.5107 38.4864Z" fill="#FEFEFE"/>
<path d="M82.3528 25.3103H99.9111L100.562 20.9541H81.1133L82.3528 25.3103Z" fill="#FEFEFE"/>
<path d="M141.663 8.47949H136.059L125.756 20.9118H114.874L116.13 25.3263H125.271L132.215 38.4864H137.975L129.266 23.1232L141.663 8.47949Z" fill="#FEFEFE"/>
<path d="M110.828 8.47949L106.346 38.4864H111.237L115.72 8.47949H110.828Z" fill="#FEFEFE"/>
</svg>
