<svg width="222" height="46" viewBox="0 0 222 46" fill="none" xmlns="http://www.w3.org/2000/svg">
<path d="M220.457 2.56657C220.457 2.87761 220.263 3.01106 219.808 3.01106H219.465V2.10842H219.808C220.25 2.10842 220.457 2.25343 220.457 2.56552V2.56657ZM220.874 2.56657C220.874 2.01175 220.505 1.71753 219.808 1.71753H219.061V4.00406H219.466V3.40405H219.809C219.845 3.40405 219.882 3.40405 219.918 3.4009L220.353 3.98514L220.366 4.00406H220.904L220.369 3.31894C220.703 3.1981 220.874 2.94486 220.874 2.56762V2.56657Z" fill="black"/>
<path d="M219.921 4.52418C219.05 4.52418 218.341 3.80018 218.341 2.90806C218.341 2.01698 219.049 1.29194 219.921 1.29194C220.793 1.29194 221.5 2.01698 221.5 2.90806C221.5 3.80018 220.792 4.52418 219.921 4.52418ZM219.921 1.01453C218.901 1.01453 218.07 1.86357 218.07 2.90806C218.07 3.9515 218.9 4.80159 219.921 4.80159C220.942 4.80159 221.772 3.9515 221.772 2.90806C221.772 1.86357 220.941 1.01453 219.921 1.01453Z" fill="black"/>
<path d="M212.93 19.396L215.613 1.00818H192.746L188.731 28.5873H194.465L193.645 34.2763H199.409L193.065 38.3008L192.034 45.4568H214.9L218.665 19.396H212.93Z" fill="black"/>
<path d="M206.094 13.6199C205.849 15.3337 204.938 16.8878 203.676 18.0164C202.414 19.146 200.799 19.8374 199.137 19.85H199.124H199.111C195.787 19.8374 193.477 17.0465 193.977 13.6188C194.221 11.905 195.119 10.3509 196.382 9.22231C197.645 8.0927 199.259 7.40128 200.92 7.38867H200.933H200.947C201.077 7.38867 201.206 7.38867 201.337 7.40128L200.871 10.6703C200.739 10.643 200.61 10.6304 200.467 10.6304C198.87 10.643 197.381 11.9712 197.134 13.6188C196.901 15.2528 198.008 16.5947 199.606 16.5947C200.713 16.5947 201.758 15.9421 202.379 15.0027H200.244L200.634 12.3221H206.144L206.158 12.754C206.167 13.0335 206.138 13.3257 206.095 13.6178L206.094 13.6199Z" fill="#FCE900"/>
<path d="M21.3421 26.6507L28.9911 26.6917L28.1848 32.1579L27.9989 32.3029C24.708 34.8931 21.3165 35.9502 16.2959 35.9502C9.03523 35.9502 4.82508 31.4276 5.81727 24.6962C6.82487 17.8608 12.2419 13.4443 19.6135 13.4443C24.8128 13.4443 27.9229 14.7967 30.2688 18.0994L34.5817 15.9032C31.7365 11.2303 27.2275 9.04993 20.4352 9.04993C10.1794 9.04993 2.06933 15.485 0.710452 24.6973C-0.669992 34.0567 5.40129 40.3457 15.8193 40.3457C20.5995 40.3457 24.1883 39.3212 27.8212 36.9191L28.4313 36.5156L28.8586 39.9075H31.9728L34.6012 22.0903H20.0521L21.3411 26.6518L21.3421 26.6507Z" fill="black"/>
<path d="M163.901 22.4707L154.135 21.3664C151.591 21.0795 148.911 20.5404 149.324 17.7369C149.767 14.7369 153.008 13.2794 159.233 13.2794C164.396 13.2794 167.951 14.221 171.409 16.5232L174.352 12.9789C170.555 10.2269 166.192 9.04895 159.857 9.04895C152.944 9.04895 145.219 11.346 144.268 17.7937C143.567 22.539 146.333 25.1072 152.967 25.8774L163.308 26.9818C165.546 27.2025 168.468 27.8708 167.992 31.1072C167.516 34.3268 163.577 36.1731 157.186 36.1731C151.678 36.1731 147.6 34.9888 143.619 32.2211L140.686 35.9724C144.809 39.0376 149.324 40.3479 155.705 40.3479C165.783 40.3479 172.065 36.9402 172.943 30.9969C173.659 26.1422 170.615 23.2746 163.902 22.4718L163.901 22.4707Z" fill="black"/>
<path d="M48.9222 26.5898H66.4397L67.0888 22.1859H47.6855L48.9222 26.5898Z" fill="black"/>
<path d="M39.103 39.9065H67.5932L68.2588 35.386H44.708L46.6575 22.1859H46.6544L47.8561 14.0402H70.54L71.1984 9.57849H43.5751L39.103 39.9065Z" fill="black"/>
<path d="M72.8584 39.9065H101.349L102.015 35.386H78.4644L80.4139 22.1859H80.4108L81.6125 14.0402H104.296L104.955 9.57849H77.3305L72.8584 39.9065Z" fill="black"/>
<path d="M82.6776 26.5898H100.195L100.844 22.1859H81.4409L82.6776 26.5898Z" fill="black"/>
<path d="M111.087 9.57849L106.615 39.9065H111.495L115.968 9.57849H111.087Z" fill="black"/>
<path d="M141.85 9.57849H136.259L125.98 22.1439H115.123L116.376 26.6056H125.496L132.424 39.9065H138.17L129.481 24.3789L141.85 9.57849Z" fill="black"/>
</svg>
