<svg width="120" height="120" viewBox="0 0 120 120" fill="none" xmlns="http://www.w3.org/2000/svg">
<path d="M88.8499 51.6L82.8499 49.1L89.9999 45.3C94.3892 42.9794 97.6769 39.0101 99.1397 34.2655C100.602 29.5208 100.121 24.3894 97.7999 20C95.4792 15.6107 91.51 12.323 86.7653 10.8602C82.0206 9.39745 76.8892 9.87939 72.4999 12.2L29.9999 34.7C26.876 36.3322 24.2769 38.814 22.5024 41.8593C20.7279 44.9046 19.8501 48.3894 19.9704 51.9119C20.0906 55.4344 21.2038 58.8513 23.1818 61.7685C25.1598 64.6858 27.922 66.9846 31.1499 68.4L37.1499 70.85L29.9999 74.65C25.7465 77.0483 22.5964 81.0112 21.2196 85.696C19.8428 90.3808 20.3479 95.4179 22.6275 99.7361C24.9071 104.054 28.7813 107.313 33.4262 108.819C38.0711 110.325 43.1203 109.959 47.4999 107.8L89.9999 85.3C93.1238 83.6679 95.7228 81.1861 97.4973 78.1408C99.2719 75.0955 100.15 71.6107 100.029 68.0882C99.9092 64.5656 98.7959 61.1488 96.8179 58.2315C94.8399 55.3143 92.0778 53.0154 88.8499 51.6Z" fill="#FF0000"/>
<path d="M50 73.25L75 60L50 46.75V73.25Z" fill="#FEFEFE"/>
</svg>
